<svg xmlns="http://www.w3.org/2000/svg" version="1.1" xmlns:xlink="http://www.w3.org/1999/xlink" width="512" height="512" x="0" y="0" viewBox="0 0 64 64" style="enable-background:new 0 0 512 512" xml:space="preserve" class=""><g><path d="M51.292 25.3c-.85-2.289-2.914-3.902-5.292-4.231v-6.365l15.876-5.67L46.186 3H44v18.095a6.566 6.566 0 0 0-5.186 4.524L33.782 41.63a4.999 4.999 0 0 0-1.876-2.641l-4.787-3.419L28.802 28h2.876a7.957 7.957 0 0 0 7.152-4.415l3.804-7.587c.24-.477.366-1.012.366-1.546C43 12.548 41.452 11 39.515 11a3.433 3.433 0 0 0-3.087 1.908l-3.217 6.434A2.982 2.982 0 0 1 30.528 21h-.638A6.977 6.977 0 0 0 32 16c0-3.86-3.14-7-7-7-.117 0-.23.012-.346.018A5.987 5.987 0 0 0 19 5c-.215 0-.431.014-.654.042A6.97 6.97 0 0 0 12 1C8.14 1 5 4.14 5 8c0 .034.008.067.008.1A5.009 5.009 0 0 0 1 13c0 2.757 2.243 5 5 5h12.295a6.997 6.997 0 0 0 1.816 3h-.522a11.07 11.07 0 0 0-9.368 5.235l-4.725 7.678A3.32 3.32 0 0 0 5.285 37H1v14h12.666l-1.545 6.381c-.08.333-.121.674-.121 1.014v.292A4.318 4.318 0 0 0 16.312 63a4.333 4.333 0 0 0 4.22-3.424l3.265-15.509L26 45.535V55c0 2.206 1.794 4 4 4h33v-2.18zM46 5.071l10.124 3.894L46 12.581zm-5.278 21.148A4.58 4.58 0 0 1 45.108 23a4.617 4.617 0 0 1 4.31 2.997l3.834 10.321c-.335.933-1.029 2.682-1.755 2.682-.899 0-1.709-2.491-2.301-4.309-.91-2.798-1.851-5.691-4.203-5.691-2.351 0-3.292 2.893-4.201 5.691-.591 1.818-1.4 4.309-2.298 4.309-.394 0-.84-.539-1.3-1.555zM6 16c-1.654 0-3-1.346-3-3s1.346-3 3-3 3 1.346 3 3h2a5.01 5.01 0 0 0-3.992-4.898C7.008 8.068 7 8.034 7 8c0-2.757 2.243-5 5-5a4.981 4.981 0 0 1 4.766 3.489l.288.91.922-.246A3.966 3.966 0 0 1 19 7a3.99 3.99 0 0 1 3.66 2.411C19.949 10.377 18 12.962 18 16zm14 0c0-2.757 2.243-5 5-5s5 2.243 5 5-2.243 5-5 5-5-2.243-5-5zm-3.954 21h-4.224l4.948-7.776c.243-.382.573-.688.955-.898zm.336 2-.04.081C15.133 41.498 12.703 43 10 43s-5.133-1.502-6.341-3.919L3.618 39h5.098zM3 41.682C4.702 43.757 7.232 45 10 45s5.298-1.243 7-3.318V49H3zM28 55v-9.465c0-.67-.333-1.292-.891-1.664L24.303 42h-2.114l-3.613 17.164A2.325 2.325 0 0 1 16.312 61 2.316 2.316 0 0 1 14 58.688v-.292c0-.183.022-.366.065-.544L15.724 51H19V37h-.917l2.129-11H19a4.62 4.62 0 0 0-3.917 2.15l-5.237 8.23c-.248.389-.67.62-1.13.62h-.378a1.34 1.34 0 0 1-1.14-2.039l4.725-7.678A9.06 9.06 0 0 1 19.588 23h10.94A4.972 4.972 0 0 0 35 20.236l3.217-6.434A1.458 1.458 0 0 1 39.548 13a1.454 1.454 0 0 1 1.298 2.102l-3.804 7.587A5.967 5.967 0 0 1 31.679 26h-4.481L24.88 36.429l5.864 4.188A3.009 3.009 0 0 1 32 43.059V55c0 1.103-.897 2-2 2s-2-.897-2-2zm5.444 2A3.959 3.959 0 0 0 34 55v-7.392l2.406-7.655c.513.582 1.188 1.047 2.088 1.047 2.351 0 3.292-2.893 4.201-5.691.591-1.818 1.4-4.309 2.298-4.309.899 0 1.709 2.491 2.301 4.309.91 2.798 1.85 5.691 4.203 5.691 1.278 0 2.147-.915 2.756-1.986L60.933 57z" fill="#67e8f9" opacity="1" data-original="#000000" class=""></path><path d="M56 53h2v2h-2zM52 53h2v2h-2zM48 53h2v2h-2z" fill="#67e8f9" opacity="1" data-original="#000000" class=""></path></g></svg>