<!DOCTYPE svg PUBLIC "-//W3C//DTD SVG 1.1//EN" "http://www.w3.org/Graphics/SVG/1.1/DTD/svg11.dtd">
<!-- Uploaded to: SVG Repo, www.svgrepo.com, Transformed by: SVG Repo Mixer Tools -->
<svg fill="#06B6D4" height="800px" width="800px" version="1.1" id="Layer_1" xmlns="http://www.w3.org/2000/svg" xmlns:xlink="http://www.w3.org/1999/xlink" viewBox="0 0 512 512" xml:space="preserve" stroke="#06B6D4">
<g id="SVGRepo_bgCarrier" stroke-width="0"/>
<g id="SVGRepo_tracerCarrier" stroke-linecap="round" stroke-linejoin="round"/>
<g id="SVGRepo_iconCarrier"> <g> <g> <path d="M426.667,0H85.333c-9.412,0-17.067,7.654-17.067,17.067v477.867c0,9.412,7.654,17.067,17.067,17.067h341.333 c9.412,0,17.067-7.654,17.067-17.067V17.067C443.733,7.654,436.079,0,426.667,0z M375.467,213.333c0,4.71-3.823,8.533-8.533,8.533 H307.2c-4.71,0-8.533-3.823-8.533-8.533c0-4.71,3.823-8.533,8.533-8.533h59.733C371.644,204.8,375.467,208.623,375.467,213.333z M330.53,386.739c11.759,12.723,23.885,6.776,24.004,6.716c3.311-1.655,7.305-1.033,9.899,1.579L381.5,412.1 c3.337,3.337,3.337,8.73,0,12.066c-1.664,1.664-3.849,2.5-6.033,2.5c-2.185,0-4.369-0.836-6.033-2.5l-13.295-13.295 c-8.448,2.057-21.018,1.758-32.734-7.509L303.403,416.7c-3.934,2.611-9.224,1.553-11.836-2.364 c-2.611-3.925-1.553-9.225,2.364-11.836l25.6-17.067C323.029,383.113,327.689,383.667,330.53,386.739z M324.267,315.733 c0-4.71,3.823-8.533,8.533-8.533h34.133c4.71,0,8.533,3.823,8.533,8.533s-3.823,8.533-8.533,8.533H332.8 C328.09,324.267,324.267,320.444,324.267,315.733z M366.933,290.133H281.6c-4.71,0-8.533-3.823-8.533-8.533 s3.823-8.533,8.533-8.533h85.333c4.71,0,8.533,3.823,8.533,8.533S371.644,290.133,366.933,290.133z M324.267,256H230.4 c-4.71,0-8.533-3.823-8.533-8.533s3.823-8.533,8.533-8.533h93.867c4.71,0,8.533,3.823,8.533,8.533S328.977,256,324.267,256z M256,281.6c0,4.71-3.823,8.533-8.533,8.533H204.8c-4.71,0-8.533-3.823-8.533-8.533s3.823-8.533,8.533-8.533h42.667 C252.177,273.067,256,276.89,256,281.6z M198.767,104.9l25.6-25.6l25.6-25.6c3.337-3.337,8.73-3.337,12.066,0l25.6,25.6l25.6,25.6 c3.336,3.337,3.336,8.73,0,12.066c-1.664,1.664-3.849,2.5-6.033,2.5c-2.185,0-4.369-0.836-6.033-2.5l-11.034-11.034v39.134 c0,4.71-3.823,8.533-8.533,8.533c-4.71,0-8.533-3.823-8.533-8.533V88.866L256,71.799l-17.067,17.067v56.201 c0,4.71-3.823,8.533-8.533,8.533c-4.71,0-8.533-3.823-8.533-8.533v-39.134l-11.034,11.034c-3.337,3.336-8.73,3.336-12.066,0 C195.43,113.63,195.43,108.237,198.767,104.9z M196.267,204.8h76.8c4.71,0,8.533,3.823,8.533,8.533 c0,4.71-3.823,8.533-8.533,8.533h-76.8c-4.71,0-8.533-3.823-8.533-8.533C187.733,208.623,191.556,204.8,196.267,204.8z M128,204.8 h34.133c4.71,0,8.533,3.823,8.533,8.533c0,4.71-3.823,8.533-8.533,8.533H128c-4.71,0-8.533-3.823-8.533-8.533 C119.467,208.623,123.29,204.8,128,204.8z M128,238.933h68.267c4.71,0,8.533,3.823,8.533,8.533S200.977,256,196.267,256H128 c-4.71,0-8.533-3.823-8.533-8.533S123.29,238.933,128,238.933z M128,273.067h42.667c4.71,0,8.533,3.823,8.533,8.533 s-3.823,8.533-8.533,8.533H128c-4.71,0-8.533-3.823-8.533-8.533S123.29,273.067,128,273.067z M145.067,324.267H128 c-4.71,0-8.533-3.823-8.533-8.533S123.29,307.2,128,307.2h17.067c4.71,0,8.533,3.823,8.533,8.533S149.777,324.267,145.067,324.267 z M221.867,324.267H179.2c-4.71,0-8.533-3.823-8.533-8.533s3.823-8.533,8.533-8.533h42.667c4.71,0,8.533,3.823,8.533,8.533 S226.577,324.267,221.867,324.267z M247.467,315.733c0-4.71,3.823-8.533,8.533-8.533h42.667c4.71,0,8.533,3.823,8.533,8.533 s-3.823,8.533-8.533,8.533H256C251.29,324.267,247.467,320.444,247.467,315.733z M384,452.267h-93.867 c-4.71,0-8.533-3.823-8.533-8.533s3.823-8.533,8.533-8.533H384c4.71,0,8.533,3.823,8.533,8.533S388.71,452.267,384,452.267z M384,256h-25.6c-4.71,0-8.533-3.823-8.533-8.533s3.823-8.533,8.533-8.533H384c4.71,0,8.533,3.823,8.533,8.533S388.71,256,384,256 z"/> </g> </g> </g>
</svg>