<svg id="Layer_1" data-name="Layer 1" xmlns="http://www.w3.org/2000/svg" viewBox="0 0 864 245.9043">
  <g>
    <path id="fullLogo" d="M229.9419,240.9583H198.7533V87.1q0-3.3539-.3469-10.4222H228.209l1.04,24.7313A81.0521,81.0521,0,0,1,240.3376,88.867a62.9808,62.9808,0,0,1,17.5009-11.3059q10.5663-4.7677,25.4708-4.7692,31.53,0,46.7829,18.9,15.2445,18.9052,15.2474,50.6985v98.5677H314.151V144.8636q0-22.9617-9.8765-33.74-9.8757-10.7729-27.2029-10.7757-17.6736,0-28.07,9.3632a50.9459,50.9459,0,0,0-14.7275,24.2,108.9614,108.9614,0,0,0-4.3318,30.7364Z" style="fill: #112541"/>
    <path id="fullLogo-2" data-name="fullLogo" d="M455.95,245.9043q-24.61,0-44.01-11.8348a83.5369,83.5369,0,0,1-30.3225-31.7954,89.4414,89.4414,0,0,1-10.9164-43.633,89.1661,89.1661,0,0,1,10.9164-43.8069,83.9813,83.9813,0,0,1,30.3225-31.62q19.4035-11.8334,44.01-11.8362,24.6021,0,43.8378,11.8362a85.825,85.825,0,0,1,30.3225,31.62A88.0842,88.0842,0,0,1,541.2,158.6411a88.3567,88.3567,0,0,1-11.0894,43.633A85.3525,85.3525,0,0,1,499.7882,234.07Q480.5548,245.9029,455.95,245.9043Zm0-27.555q16.9755,0,28.9365-8.6577a56.73,56.73,0,0,0,18.367-22.4322,67.0763,67.0763,0,0,0,0-57.2338,56.2356,56.2356,0,0,0-18.54-22.4351q-12.1347-8.6519-28.7634-8.6547-16.6331,0-28.7627,8.6547a56.4576,56.4576,0,0,0-18.54,22.2584,66.6823,66.6823,0,0,0-6.4108,28.7922,64.4636,64.4636,0,0,0,6.5846,28.4416,59.8044,59.8044,0,0,0,18.5394,22.4322Q439.3166,218.3523,455.95,218.3493Z" style="fill: #112541"/>
    <path id="fullLogo-3" data-name="fullLogo" d="M614.1438,240.9583,544.8352,76.6774h35.6942l50.2486,128.245L680.68,76.6774h33.6144L645.3324,240.9583Z" style="fill: #112541"/>
    <path id="fullLogo-4" data-name="fullLogo" d="M834.89,240.9583l-.693-19.784q-8.6661,12.0144-23.7379,18.1947a79.4085,79.4085,0,0,1-30.3225,6.1818,73.0689,73.0689,0,0,1-26.1638-4.946,47.5075,47.5075,0,0,1-21.4859-16.2505q-8.496-11.303-8.49-30.0309,0-26.4943,18.3663-42.3943,18.3641-15.8963,52.3275-15.897,7.6189,0,15.7681.5288,8.1381.53,14.7275,1.059,6.5795.53,8.6636.8837v-6.0064q0-18.364-10.9157-26.3192-10.9162-7.9492-29.63-7.9492-18.0226,0-28.9365,5.1227a111.9214,111.9214,0,0,0-18.1932,10.4222L731.6213,92.2223q8.6584-7.0611,23.911-13.7775,15.2456-6.7075,41.2389-6.7134,30.8391,0,48.8618,15.3682,18.015,15.3681,18.02,43.633V232.48q0,3.5349.3468,8.478Zm-1.04-58.9983V163.2336q-1.7378-.7026-7.9706-1.2358-6.237-.528-14.0345-1.059t-15.0743-.53q-17.3334,0-26.5107,5.1228-9.1864,5.1257-12.4754,12.7184a37.4988,37.4988,0,0,0-3.2919,15.0147q0,13.0749,9.01,20.1375,9.0075,7.072,24.9508,7.0654a46.5435,46.5435,0,0,0,22.3519-5.4762A48.4728,48.4728,0,0,0,827.44,200.6834,31.3392,31.3392,0,0,0,833.8506,181.96Z" style="fill: #112541"/>
    <path id="logoMark" d="M60.2974,66.7723q0-21.5456,8.1437-30.3829Q76.58,27.5608,90.1,27.5564a37.528,37.528,0,0,1,12.239,2.0444L118.9437,7.7364a55.5435,55.5435,0,0,0-8.5708-3.6742A79.7654,79.7654,0,0,0,85.2483,0,58.2112,58.2112,0,0,0,57.8716,6.712Q45.0485,13.4284,37.08,27.5564q-7.9758,14.1354-7.9714,36.3894V77.3712H0v26.4959H29.1088v137.785H60.2974V103.8671h46.09V77.3712h-46.09Z" style="fill: #112541"/>
    <rect id="fullLogo-5" data-name="fullLogo" x="135.0679" y="7.7315" width="31.1886" height="27.1929" style="fill: #112541"/>
    <rect id="fullLogo-6" data-name="fullLogo" x="135.0679" y="76.6788" width="31.1886" height="164.2809" style="fill: #112541"/>
  </g>
</svg>
