<svg xmlns="http://www.w3.org/2000/svg" xmlns:xlink="http://www.w3.org/1999/xlink" viewBox="0 0 333.54 60.91"><defs><style>.cls-1{fill:#a39aa7;}.cls-2{fill:#803356;}.cls-3{fill:url(#radial-gradient);}</style><radialGradient id="radial-gradient" cx="40.13" cy="12.28" r="35.5" gradientUnits="userSpaceOnUse"><stop offset="0" stop-color="#bab3bd"/><stop offset="1" stop-color="#a39aa7"/></radialGradient></defs><g id="Layer_2" data-name="Layer 2"><g id="Layer_1-2" data-name="Layer 1"><path class="cls-1" d="M99.52,31.76V47.69H90.21V2.48h17.63a20.33,20.33,0,0,1,9,1.87,13.68,13.68,0,0,1,5.94,5.29,14.74,14.74,0,0,1,2.08,7.81,13,13,0,0,1-4.55,10.48q-4.55,3.83-12.58,3.83Zm0-7.54h8.32a8.21,8.21,0,0,0,5.64-1.74,6.35,6.35,0,0,0,1.94-5,7.47,7.47,0,0,0-2-5.37,7.27,7.27,0,0,0-5.4-2.11H99.52Z"/><path class="cls-1" d="M145.87,47.69a10.19,10.19,0,0,1-.9-3,10.83,10.83,0,0,1-8.47,3.64,11.88,11.88,0,0,1-8.18-2.86,9.15,9.15,0,0,1-3.25-7.2,9.51,9.51,0,0,1,4-8.2q4-2.85,11.44-2.89h4.13V25.24a5.55,5.55,0,0,0-1.2-3.73,4.69,4.69,0,0,0-3.77-1.39,5.36,5.36,0,0,0-3.55,1.08,3.7,3.7,0,0,0-1.29,3h-9a9,9,0,0,1,1.8-5.4,11.88,11.88,0,0,1,5.09-3.89,18.41,18.41,0,0,1,7.39-1.42q6.21,0,9.85,3.12t3.65,8.77V39.92a16.07,16.07,0,0,0,1.34,7.24v.53Zm-7.42-6.24a7.75,7.75,0,0,0,3.67-.89,5.87,5.87,0,0,0,2.48-2.37V32.41h-3.35q-6.75,0-7.18,4.66l0,.53a3.63,3.63,0,0,0,1.18,2.76A4.62,4.62,0,0,0,138.45,41.45Z"/><path class="cls-1" d="M175.87,22.51a23.58,23.58,0,0,0-3.23-.25c-3.39,0-5.62,1.15-6.67,3.45v22h-9V14.09h8.47l.25,4q2.7-4.62,7.48-4.63a9.38,9.38,0,0,1,2.8.41Z"/><path class="cls-1" d="M196.28,47.69a10.19,10.19,0,0,1-.9-3,10.83,10.83,0,0,1-8.47,3.64,11.9,11.9,0,0,1-8.18-2.86,9.15,9.15,0,0,1-3.25-7.2,9.51,9.51,0,0,1,4-8.2q4-2.85,11.44-2.89H195V25.24a5.6,5.6,0,0,0-1.19-3.73A4.72,4.72,0,0,0,190,20.12a5.36,5.36,0,0,0-3.55,1.08,3.7,3.7,0,0,0-1.29,3h-9a9,9,0,0,1,1.8-5.4,11.94,11.94,0,0,1,5.09-3.89,18.41,18.41,0,0,1,7.39-1.42q6.21,0,9.86,3.12T204,25.36V39.92a16.07,16.07,0,0,0,1.34,7.24v.53Zm-7.42-6.24a7.75,7.75,0,0,0,3.67-.89A5.87,5.87,0,0,0,195,38.19V32.41h-3.35q-6.74,0-7.17,4.66l0,.53a3.62,3.62,0,0,0,1.17,2.76A4.62,4.62,0,0,0,188.86,41.45Z"/><path class="cls-1" d="M205.88,30.64c0-5.23,1.17-9.41,3.52-12.51A11.45,11.45,0,0,1,219,13.47a10.29,10.29,0,0,1,8.1,3.67V0h9V47.69H228l-.43-3.57A10.57,10.57,0,0,1,219,48.31a11.41,11.41,0,0,1-9.52-4.68Q205.88,39,205.88,30.64Zm9,.67c0,3.15.55,5.57,1.65,7.24a5.35,5.35,0,0,0,4.78,2.52,6,6,0,0,0,5.86-3.51V24.28a5.91,5.91,0,0,0-5.8-3.51Q214.84,20.77,214.85,31.31Z"/><path class="cls-1" d="M239.4,5.4a4.42,4.42,0,0,1,1.35-3.32,5.84,5.84,0,0,1,7.35,0,4.4,4.4,0,0,1,1.36,3.32,4.38,4.38,0,0,1-1.38,3.35,5.74,5.74,0,0,1-7.3,0A4.38,4.38,0,0,1,239.4,5.4Zm9.53,42.29h-9V14.09h9Z"/><path class="cls-1" d="M251.22,30.64q0-7.73,3.68-12.45a11.92,11.92,0,0,1,9.91-4.72,10.46,10.46,0,0,1,8.6,3.79l.38-3.17h8.13V46.57a14.42,14.42,0,0,1-2,7.67,12.92,12.92,0,0,1-5.64,5,19.75,19.75,0,0,1-8.5,1.71,18.48,18.48,0,0,1-7.21-1.47,12.74,12.74,0,0,1-5.3-3.81l4-5.46a10.52,10.52,0,0,0,8.13,3.76A7.71,7.71,0,0,0,270.93,52a7.2,7.2,0,0,0,2-5.42V44.8a10.38,10.38,0,0,1-8.17,3.51A11.88,11.88,0,0,1,255,43.57q-3.75-4.73-3.74-12.56Zm9,.67A12.27,12.27,0,0,0,262,38.48a5.83,5.83,0,0,0,5,2.59c2.73,0,4.69-1,5.87-3.08V23.85a6.23,6.23,0,0,0-5.81-3.08A5.86,5.86,0,0,0,262,23.41C260.8,25.17,260.19,27.81,260.19,31.31Z"/><path class="cls-1" d="M293.8,14.09l.28,3.76a11.8,11.8,0,0,1,9.65-4.38q6.5,0,8.91,5.13a11.54,11.54,0,0,1,10.09-5.13q5.47,0,8.14,3.19t2.67,9.57V47.69h-9V26.26a6.42,6.42,0,0,0-1.11-4.17c-.75-.88-2.06-1.32-3.95-1.32a5.58,5.58,0,0,0-5.58,3.85l0,23.07h-9V26.3a6.37,6.37,0,0,0-1.14-4.23c-.77-.87-2.07-1.3-3.92-1.3a5.8,5.8,0,0,0-5.52,3.17V47.69h-9V14.09Z"/><path class="cls-2" d="M64.85,11.2s0,0,0,.09S64.86,11.2,64.85,11.2Z"/><path class="cls-2" d="M74.35,26.59c0-.06,0-.12,0-.12v.16C74.36,26.77,74.35,26.68,74.35,26.59Z"/><path class="cls-2" d="M14.7,15.26Z"/><path class="cls-2" d="M64.2,15.22s0,.07.08,0h0S64.22,15.2,64.2,15.22Z"/><path class="cls-2" d="M65.21,11.34a.39.39,0,0,0,.07-.09Z"/><path class="cls-2" d="M74.63,25.74h-.14l.05,0A.16.16,0,0,1,74.63,25.74Z"/><path class="cls-2" d="M35.94.75l0-.11A.82.82,0,0,1,35.94.75Z"/><path class="cls-2" d="M12.71,20.79h0Z"/><path class="cls-2" d="M60.83,51.51a.59.59,0,0,0,.19,0l-.24,0Z"/><path class="cls-2" d="M12.42,52.3h0S12.47,52.36,12.42,52.3Z"/><path class="cls-2" d="M63.88,14.36s0,0,0,.08l0,0Z"/><path class="cls-2" d="M77,37.77s0,0,.13,0a.08.08,0,0,0-.08,0S77,37.76,77,37.77Z"/><path class="cls-2" d="M77.42,37.55l.06.08A.21.21,0,0,0,77.42,37.55Z"/><path class="cls-2" d="M78.38,41l0,0-.08.07S78.36,41,78.38,41Z"/><path class="cls-3" d="M80,45.19l.14-.26.1-.32-.22-.18-.36-.13-.15-.24-.32-.15c-.32-.15,0,0-.2.26s0,0-.27-.15a1,1,0,0,1-.4-.48l.3-.18a2.65,2.65,0,0,0,.39-.1c.16-.07-.12-.24-.12-.24l-.33-.35s0,.11-.16-.33,0,0-.16.09a.17.17,0,0,0-.1.22l-.35.17-.14.35-.22.09-.06-.55-.2-.22c-.19-.21,0,0,0-.21s.14-.22.14-.22l.16-.37.44-.16.33-.41a.21.21,0,0,0,.06-.08s0,0,.06-.12.1-.18.06-.18-.1,0-.14-.16,0-.16-.11-.09a.32.32,0,0,1-.23.06c-.33,0-.31-.08-.31-.08l0-.31c0-.17,0-.15,0-.13s.08,0,.16,0,0,0,0-.46,0,0,.27,0,.08-.54.08-.54l.1-.39-.73-1c0,.06,0,.13-.28.16h0c0,.05,0,.14-.07.32s-.13.21-.12.14,0-.15-.23.17l0,0v0c0-.13.06-.25-.16-.19-.53.13-.14-.2-.14-.2l0-.63.14-.19v0a1.44,1.44,0,0,1,.08-.28c0-.07,0-.12,0-.15l0,0c0,.1-.11.2-.09-.09s0-.2.08-.1.05.19.06-.12c0-.61.14,0,.14,0l.22,0c-.07,0-.27-.08,0-.3h0s-.06-.1-.06-.25,0-.21,0-.13-.08.15-.2-.07-.08-.18,0-.13.08.1-.09-.13a1.62,1.62,0,0,1-.14-.22l-.24,0h-.21s.21,0-.28.19l-.06,0c.06,0,.1,0-.08.21-.42.44-.45.09-.45.09l-.1-.2c-.1-.19,0,0,.1-.28s.11-.11.11-.11l.22-.13c.22-.13.12-.15.12-.15l.24-.13.47-.2,0-.19s-.41.39,0-.2-.12-.09-.12-.09l-.07-.28s.08.27.17-.26c0-.29,0-.2-.07-.11s-.13.16-.14,0c0-.4-.3,0-.3,0s.3,0-.32.21l-.21.07-.08,0,0,0-.11,0c-.38.14-.24.14-.18.13l-.16,0s.1.09-.22.07.1,0-.1.24,0,0-.17.32-.16.13-.16.13l-.34,0,.1-.26v-.26l0-.44,0-.58.49-.05,0-.26.42-.24.24-.19-.28-.42-.14.09h-.32l0-.37-.08-.22-.28,0-.24-.09-.08-.32.38-.15V30.8l.16-.37h.47l.28,0,.18-.41-.32-.17.08-.22.22-.18.19.31.22.11s-.41-.42.18-.24,0-.24,0-.24-.06.39-.18-.37V28.9a.71.71,0,0,1-.11-.2l-.1-.23,0,.05c0,.08.08.15,0-.16-.23-.64-.23.21-.23.21s.14-.17-.14.2-.13.17-.14.1,0-.07-.14-.06c-.27.05,0,0-.18-.06s0,0-.06-.31,0-.11,0-.11l-.15-.7s0-.05.1-.38c0,0-.1.17,0-.11s0,.11-.06-.48v0s0-.08,0-.15c0-.35,0-.27,0-.2s0,.13.07-.08a.62.62,0,0,1,.14-.41l-.18-.07c-.34-.15.15,0-.32.07s.32-.07-.12-.18.12-.46.12-.46l-.1-.21s0,0,0-.29,0-.16,0-.12,0,.08-.12-.09c-.16-.35-.2,0-.2,0l-.11.09L73,24.44h-.28s.28,0,.12-.18-.16-.24-.16-.24h-.23l0-.26c0-.15,0-.13,0-.11a.15.15,0,0,0,.18,0,.66.66,0,0,0,.23-.22v-.3l-.33.06c-.34.07-.12,0-.12,0l-.5-.11c-.49-.11-.15.28-.15.28l-.08.44c-.08.44-.26.07-.26.07l-.44,0-.35-.05,0,.26-.2.11-.12,0a.58.58,0,0,1-.29-.07l-.1,0L69.27,24l0,.44c0,.24,0,.22,0,.19s-.06,0-.13.09c-.13.29,0,0-.41-.24l-.18-.1-.2-.16L68.14,24s0,0-.27,0,0,0-.32.16,0,0-.12.15-.05.07-.11,0a.45.45,0,0,0-.2,0c-.32,0,0,0-.12-.17s.24-.37.24-.37l.25-.35.06-.16.28-.06c.28-.07.1-.09.14-.33,0,0,0-.13,0-.39s.39.13.39.13l.08,0c.08,0,.14-.15.14-.28s-.06-.11,0-.37l.32,0,.18-.13c.17-.14,0,0,0-.18s0,0-.16-.2-.08-.07,0,0,.12,0,.2-.12.25,0,.25,0l.24-.07.1-.24c0-.13,0-.12,0-.1s0,0-.08-.05a.94.94,0,0,0-.2-.33h0a.22.22,0,0,0,.3-.21c0-.35.2-.07.2-.07l.29-.17v-.22c0-.13,0-.11,0-.08a.1.1,0,0,0,.12,0c.16-.06,0,0,.06.07a1.65,1.65,0,0,0,.49.08v-.21l-.19-.35v-.52c0-.32,0-.22,0-.13s0,.17,0-.09,0-.2-.06-.08-.12.17-.3.08c-.41-.22-.18.26-.18.26l-.33,0-.08-.25s0,0,0-.34v-.1s0,0,0-.14c0-.39,0,.11-.34.13s0,0-.28.22,0,0,0-.22,0,0-.09-.39l.47-.09-.18-.44-.08-.37.46,0c.45,0,0,0,.06-.15a1.2,1.2,0,0,1,.19-.31l-.25-.09a.69.69,0,0,1-.33-.17.89.89,0,0,1,0-.3.85.85,0,0,0,0-.27l-.22-.5-.35.05-.46.06-.21.05L67.91,15h0s0,0,0-.08l0-.09s0,0,0,0,0-.06-.05,0a.13.13,0,0,1-.11,0c-.16,0,0,0-.24,0s-.15,0-.15,0a1.57,1.57,0,0,1,0-.37,1.59,1.59,0,0,1,.11-.26l-.29-.35-.18.18c-.18.17,0,0,0,.17s0,0-.34.28,0,0-.33,0,0,0-.16-.15,0,0-.38.2.14.26.14.26v.39L65.58,15l-.24-.13c-.14-.08-.12-.06-.14,0s-.06,0-.2,0c-.33,0,0,0-.25-.07s0,0-.4.37l-.07.06s0,.11,0,.27c-.09.34-.06.22-.06.11s0-.19-.16,0c-.31.46-.39.09-.39.09v-.31s0,.2,0-.43c0-.32,0-.2,0-.08s0,.22.12,0,0-.25,0-.2-.06.1,0-.11a.14.14,0,0,1,0-.06c0,.05-.1.05-.14-.2-.1-.56,0-.13,0-.13l0-.11.21-.22c.22-.21,0,0,0-.26s0,0,0-.28.2-.11.2-.11l.36.09.35-.05c.36,0,0,0,.06-.24s-.25-.13-.25-.13l.11-.41,0-.35s0,.35.36-.39c.21-.39.1-.26,0-.14s-.17.22,0-.06l.07-.11,0,0c-.09.1-.23.2-.31,0a.31.31,0,0,1,0-.08h0s-.13.11-.38.09c-.67-.07.41,0-.16-.16s-.38.14-.38.14l-.06.17s.06-.17-.27.11l-.1.08-.12,0c-.32.15,0,0,0,.37v.18s0,0,0,.17,0,.16-.08.09a.19.19,0,0,0-.18-.07l-.27,0c-.28,0,0,0-.28.28s-.14.15-.16.13-.05,0-.24.07c-.39.2,0,0-.21-.24l-.09-.1s0,0,0,0a1.12,1.12,0,0,1,0-.52s.07,0,.24-.11.17-.1.14-.09-.05,0,0,0,0,0,.16-.13,0,0,.14-.53-.18-.26-.18-.26l.18-.37-.1-.15c-.06-.1-.05-.07-.21,0a2.92,2.92,0,0,1-.5,0c-.71,0,0,0-.28.37s-.08.17-.08.17.08-.17,0,.13,0,.16-.12.14a.91.91,0,0,0-.47.08l-.23.09h0s.12,0-.14.1c-.49.24,0,0-.17-.09h0a.15.15,0,0,0,0-.12,1.64,1.64,0,0,1,.06-.31c0-.16,0-.15,0-.13s-.08,0-.16-.06.08-.24.08-.24l.25-.33.18-.41-.16-.07s-.2.13-.31.22-.14,0-.28-.07-.16,0-.38-.06,0,0-.23.41-.11.19-.1.12,0-.09-.06-.07,0,0-.08-.57a1.05,1.05,0,0,1,0-.13c0,.07,0,.13.08-.11s0-.22,0-.17,0,.08.07-.09.06-.16,0-.12-.08.06-.13-.1-.05-.16-.07-.15-.05,0-.15-.11-.11-.13-.08-.13.09,0,.1-.11,0-.12,0-.11-.07,0-.14,0a.54.54,0,0,0-.45-.07l-.28.18-.42,0-.11-.35c-.07-.2-.06-.17,0-.13s0,0,0,0,0,0-.16-.28,0,0-.1-.29-.14-.26-.14-.26V6.64l-.52-.53s0-.14-.11-.34c-.18-.53.1-.42.1-.42l-.2-.41c-.1-.22-.1-.21-.1-.2s0,0-.1-.15-.09-.16-.09-.11,0,.06-.09,0,0,0,0-.17,0-.09,0-.08,0,0-.09-.07,0,0-.24.08,0,0-.1.29-.05.13-.05.1,0,0,0,0l-.16.17,0,.33,0,.32,0,.42c0,.25,0,.29,0,.29l0,.17.06.37a2.79,2.79,0,0,0,.12.52s-.37.11-.53,0l-.3-.52-.08-.13c-.08-.14,0,0-.26-.31s0-.2,0-.2v-1L54,4.92l-.46-.22-.26-.11c-.25-.11,0,0,0-.13s.16-.26.16-.26L53.71,4l-.16-.69V3l-.08-.19c0-.1,0-.1-.07-.09a.38.38,0,0,1-.22-.06c-.3-.16,0,0,0-.35S53,2.13,53,2.13L52.66,2c-.31-.08,0,.31,0,.31l-.12.5a4.19,4.19,0,0,1-.15.52c-.16.52-.32.2-.32.2V3.7l.32.15v.22a1.46,1.46,0,0,0-.32.11c-.2.08-.08.13-.08.24s.18.21.24.41,0,.11-.32.11-.16-.2-.16-.2l-.12-.3-.14-.09a1.4,1.4,0,0,0-.33-.15L51.24,4c.08-.17,0,0-.14-.21s0-.29,0-.29V2.67l-.24.16-.34-.05-.05-.24,0-.3c0-.31,0,0-.24-.33-.12-.16-.11-.14-.07-.12s.1,0,.07-.14,0-.17,0-.15,0,0,0-.05,0-.09,0-.08,0,0,0,0,0,0-.38,0,0,.24,0,.24l-.23,0-.18-.2c-.18-.19,0,0-.18-.23s0-.11,0-.11L49,.67,48.88.56c-.11-.11-.19,0-.19,0l-.22.15-.22.2C48,1.06,48,1,48,1h-.15L47.44.58s-.1,0-.22.29-.06.14-.06.13,0,0-.11.08-.09.11-.11.1,0,0-.15.06,0,0-.16.26-.08.13-.05.12.05,0,.05.07a.12.12,0,0,0,.18.13l-.1.18a.43.43,0,0,1-.34.17l-.23-.26-.5.33,0,.33c0,.17,0,.16,0,.15s0,0-.11.08,0,0-.17-.17,0,0-.08-.17a1,1,0,0,0-.2-.29l-.14.2v.28c0,.15,0,.14,0,.14s0,0-.05.12-.26.13-.26.13l-.1.2c0,.11,0,.1,0,.09s.06,0,.08,0,0,0,.36.18,0,0,.18.17-.16.11-.16.11l-.44-.15-.15-.37a.5.5,0,0,0-.14-.16.76.76,0,0,0-.2-.06.82.82,0,0,0-.24,0c-.12,0-.12,0-.16.15a5.42,5.42,0,0,0,0,.8c0,.55-.07.41-.11.26s-.05-.13-.09-.12l-.16-.37-.32-.22-.06-.22v-.7l-.08-.08c-.07-.09,0-.37,0-.37l-.19-.11-.24.15-.11.07s0,0-.09,0-.09,0-.09,0,0,0-.07,0,0-.24,0-.24l-.09.07c-.1.06-.24.45-.24.45l-.1.35-.26.18h-.16L40.48,3l.06-.15.34-.33-.1-.19-.18.08-.32-.06V2.22a1.52,1.52,0,0,1,.18-.59l.12-.16,0-.17c0-.17-.18,0-.18,0A1,1,0,0,1,40.16,1,.23.23,0,0,0,40,.87a.27.27,0,0,0-.26.06c-.1.11,0,0-.12.29l0,.11a2,2,0,0,0-.27.06c-.19.06,0,0-.13.17s0,.09,0,.2A1.19,1.19,0,0,1,39,2h-.38c-.22,0,0,0-.14-.13s0-.17,0-.17l-.15-.22-.32,0-.42.37-.12,0a1.24,1.24,0,0,1-.33-.19l0-.24a.93.93,0,0,0-.58,0c-.36.11-.23.37-.23.37H36c-.28,0,0,0-.1-.31s-.08-.32-.08-.32l0-.16c0-.15,0,0,.12-.3L35.75.71c-.17-.06-.21,0-.21,0l-.18.11-.22.35V1c0-.11-.28,0-.35,0s-.18.13-.18.13L34.37,1c-.24-.09-.06-.15-.06-.15L34.25.63,34.19.5a1.07,1.07,0,0,0-.43.21,3,3,0,0,0-.28.33c-.28.33-.2-.3-.2-.3l.08-.22A.33.33,0,0,0,33.3.17L33.24,0a.37.37,0,0,0-.17,0,.39.39,0,0,0-.18,0c-.2.09-.08.24-.08.24l-.42.17c-.23.1-.2.09-.14.08s.14,0,.14,0,.18.24.2.33-.3.26-.3.26L31.9,1l-.1.11s-.26.37-.4.3a.61.61,0,0,0-.21-.06l-.14-.13-.26,0v.2l-.12.34L30.61,2a.53.53,0,0,0,0,.32v.13a.56.56,0,0,1-.06.24l0,.18.2.15-.08.15c-.08.15,0,0-.16.15a.26.26,0,0,0-.08.29l.1.19c.1.2,0,0,0,.22s0,.11,0,.1,0,0-.05,0-.39.31-.39.31l0-.11a1.61,1.61,0,0,1,0-.26,1.65,1.65,0,0,1,0-.37V3.5c0-.19-.08-.22-.08-.22l-.14.09a.2.2,0,0,1-.24,0V3.2c0-.18,0,0,0-.42s0-.32,0-.32l-.09-.31c-.1-.3,0-.24,0-.24l.15-.17,0-.31-.23,0-.22.37c-.22.37-.22,0-.22,0l-.2-.22-.13-.15-.08-.15L28.34,1l-.26.23s0,.09,0,.18,0,.08,0,.36,0,.13,0,.1,0,0,0,0a.38.38,0,0,1-.08.15v.27l0,.12a.24.24,0,0,0,.13.16l.28.23L28.24,3c-.13.14,0,0-.15-.05a.9.9,0,0,1-.23-.1l-.35-.11h-.27l-.08,0L27,2.68a1,1,0,0,1-.18-.13l-.14-.2h-.06l-.35.26v.62l-.17,0-.29-.12-.07-.07-.17-.35-.05-.19-.28.15L25.05,3l-.13.22-.15.21-.27.17-.27.44.08.45c.08.45.25,0,.25,0h.34s.08,0,.07.33-.15.17-.15.17l-.39.15L24,5.69v.1a.57.57,0,0,0,.12.25l-.43.07-.15.29-.12.07-.1-.26,0-.26-.12-.35h-.26c-.27,0-.07,0-.08.27s0,.11-.25.33-.06.09-.1.2-.1.06-.18.19,0,0,0,.21V6.9s0,0,0,.07V7s0,0,0,0,0,.08,0,.2-.25.33-.25.33a1.5,1.5,0,0,0-.35.15l-.12.12s-.25-.16-.25-.16V7.58a2.84,2.84,0,0,1,0-.31V7.11L21.08,7H20.9l-.45-.41h-.08a2,2,0,0,1-.17.21L19.91,7h-.09a1.52,1.52,0,0,0-.1.26c0,.19,0,.15,0,.21a.59.59,0,0,0,.12.27s0,.09,0,.18.21.33.21.33a1.3,1.3,0,0,1,.14.26c0,.1.08.09.13.19s0,0-.05.1,0,.05,0,0,0,0,0,0-.08,0-.18.1,0,0,0,.23,0,.11,0,.07a.21.21,0,0,1,.15,0c.12,0,.13,0,.13,0h0c.07,0,0,0,.31,0s.17.1.17.1l.05.09.18.18v0S21,10,21,10l.13.24.16,0h.15a.36.36,0,0,1,.23.08c.14.09,0,.13,0,.18s0,0,0,0h-.16a.88.88,0,0,0-.24,0c-.2,0-.12.17-.12.17l-.15,0-.09-.14-.07-.08a.44.44,0,0,0-.23.05.38.38,0,0,0-.16.21l-.13.05-.1-.1.07-.32-.07-.4a.91.91,0,0,0-.12-.17s-.11.09-.11.09L20,10a.62.62,0,0,0-.1.24c0,.15,0,.09-.07.18s-.08.07-.08.07l-.24-.15a2.61,2.61,0,0,1-.27-.21L19,9.94a.88.88,0,0,1-.08-.14c0-.05,0,0,0,0a.06.06,0,0,1-.06,0c-.08,0-.1,0-.18,0s-.09-.16-.09-.16l0-.12-.25-.16-.09,0-.3-.11h-.2c-.05,0-.21.18-.21.18l0,.09,0,.17.06.1,0,.09.12.17c0,.06,0,.08,0,.15a2.79,2.79,0,0,1,.07.52c0,.23.25.09.25.09h.13a.88.88,0,0,1,.3,0c.15,0,0,.16,0,.16v.21c0,.21.11.26.11.26l.07,0,.34,0,0,.11,0,.13.2.1.12.05a2.27,2.27,0,0,1,.42,0c.17,0,0,.09,0,.15a.74.74,0,0,1-.06.11h-.06l-.6,0-.11,0-.32-.2-.2,0L18,11.83l-.07,0-.17-.22a1.56,1.56,0,0,0-.24-.28c-.08,0-.07,0-.13.09s-.15.17-.23.07,0,0-.05.08-.25-.16-.25-.16l-.1-.16a1.14,1.14,0,0,1-.29,0c-.18,0-.12.08-.18.08s-.07,0-.14-.06-.11,0-.2.08,0,0-.1.23.1.22.1.22l0,.07c.06.07.06,0,.12.15a.62.62,0,0,1,.08.33.52.52,0,0,0,.09.22l.24.29c.24.29,0,.09,0,.23s0,0,.08.32.06.15.07.1,0-.06,0,0,.07,0,.15.1l.27.29c.28.29.12,0,.12,0a1.12,1.12,0,0,1,.29,0c.09,0,0,0,.05.3s.12.06.12.06H18l.29.06v.1a1.72,1.72,0,0,1,0,.28v.16H18l-.41-.15-.08-.13-.13-.1-.21,0,0-.1v-.09l0-.16h-.24l-.23.08-.17.14v-.12l-.08-.1L16.28,14s-.25-.18-.38-.11,0,0,0,.19v.48c0,.19-.12.13-.16,0s-.17-.09-.24-.15-.05-.11-.08-.19,0,0-.21-.16S15,14,15,14a.34.34,0,0,1-.22.09c-.14,0-.1,0-.22-.07a.16.16,0,0,0-.17,0h-.22l0,.07a.12.12,0,0,0,0,.13l.08.15.16.16a2.27,2.27,0,0,1,.22.17c.11.09,0,.07,0,.13a2.58,2.58,0,0,1,.06.31v.1l.22,0a1.27,1.27,0,0,1,0,.27c0,.19-.23.12-.23.12a.5.5,0,0,0-.1-.12c-.07,0-.24,0-.24,0l-.17.19-.08.07L14,15.72l-.16-.14,0-.35-.15-.06-.05-.09-.17-.27-.17-.12-.14-.14h-.22l-.16.13-.16.13-.15-.13-.14.07-.15.1h-.53a.5.5,0,0,0-.23.1.34.34,0,0,0,.27.39c.21,0,.17.06.21.16s0,0-.05.18,0,.14,0,.14v.28c0,.28.05.16.05.16l0,.09c.06.08.27.07.27.07l0,.12v.14l.26.15.12.31c.12.32,0,0,.11,0s.09,0,.22-.24,0-.13.13-.29,0-.08,0-.05,0,0,0,0,.17.1.24.3,0,.11,0,.25.2.09.2.09l.21,0c.06,0,0,0,.11-.12a.31.31,0,0,1,.21-.11l0,.26,0,.2.19.21-.17.17-.12.18,0,.26-.21.07a1.14,1.14,0,0,1-.26,0c-.11,0-.12,0-.27.17s-.55-.07-.55-.07l-.16-.08a.87.87,0,0,0-.22-.3c-.12-.07-.07.06-.15.19s.11.29.11.29l.16.18.06.23c.07.23,0,.07-.1.29s-.07.09,0,.28,0,.09,0,.07,0,0,.11,0,.08,0,.24.07.08.09.17.22a1.07,1.07,0,0,1,.12.28c.05.1.13.07.31.24s.07.13.12.41-.13.35-.13.35l-.08.24h-.41l-.17-.22,0-.24a.38.38,0,0,1,0-.14s0,0,0,0-.18,0-.25.13,0,0,0,.19,0,.12,0,.2-.18,0-.18,0l-.11-.07-.33-.06-.19,0-.2-.06-.21-.05-.06-.15-.28,0-.08-.1-.17-.11-.25-.1,0-.1-.2-.06a.36.36,0,0,0-.18.1c-.06.08,0,.08,0,.25s-.08.06-.17.15l-.08-.19-.05-.15-.07-.14-.31-.26H9.07c-.14,0-.11.12-.25.14a.35.35,0,0,1-.2,0c-.13,0,0,0-.14.13s0,.08,0,.24,0,.13.11.24a.4.4,0,0,1,.06.16s.05,0,.08.11a.22.22,0,0,0,.19.09c.06,0,.05.07.05.13s.14.16.14.16a1.54,1.54,0,0,1,0,.2c0,.09.06.09.08.16s0,.09,0,.21,0,0,.09,0a.14.14,0,0,1,.13,0c.15,0,0,.11,0,.17s0,.07,0,.16.06.1.19.18.08.12.18.12a.18.18,0,0,0,.14-.08s.28-.08.29,0a3.54,3.54,0,0,0-.13.36c-.07.2.08.19.08.19a.22.22,0,0,1,.1.06c.06,0,.2,0,.32,0s.08,0,.25.07,0,.12,0,.32-.07.19-.08.25-.32,0-.32,0l-.17-.27-.2.11-.21,0-.09-.19a1.43,1.43,0,0,0-.07-.29c0-.17,0-.13,0-.21s-.12,0-.29.08,0,0-.08.23-.05.14-.07.12a0,0,0,0,0-.06,0c-.09.06-.07-.06-.17-.33s-.06-.14,0-.14,0,0,0-.1-.09-.13-.09-.13L8.61,23l0,.18.12.34c.06.19-.16.22-.16.22s-.07,0-.17-.25-.07-.14-.07-.15v0a.26.26,0,0,0,0-.13.3.3,0,0,0-.17,0A.67.67,0,0,0,8,23.3a.42.42,0,0,1-.29-.09c-.15-.11-.08,0-.08,0s-.49,0-.71,0c0,0,.09.17.14.29l.14.24a.92.92,0,0,1,.26.18,2.93,2.93,0,0,0,.22.2c.16.15,0,.1,0,.1l.07.19v.22c0,.09.22.2.22.2a.39.39,0,0,0,.11,0,.69.69,0,0,1,.24.06c.07,0,.06,0,.15.26s0,.06,0,.23-.1.19-.1.19H8.2a.33.33,0,0,0-.07-.13L8,25.39s-.1,0-.11-.08-.1,0-.1,0l-.1.09-.14-.23,0-.09a.81.81,0,0,0-.12-.22l-.15-.1-.1.07c-.11.07,0,.06-.07.22s0,.09-.07.08,0,0,0,0v-.09s-.09-.2-.15-.31a.44.44,0,0,0-.1-.14l-.16-.26-.21-.15,0-.2-.09-.18-.15-.1-.14.06c-.1,0-.11.1-.14.19s-.34.11-.34.11a.38.38,0,0,1-.25,0A.12.12,0,0,0,5,24.2a.92.92,0,0,0-.24.16c-.12.12,0,.13,0,.24s.15.42.17.53,0,0,.14.29.06.14.07.11,0,0,.08,0,.12-.06.21-.09.08-.11.18-.19.23-.06.25,0a.75.75,0,0,1,0,.32c0,.12,0,.12-.07.12s-.09,0-.16.09,0,0,0,.2,0,0,0,.26,0,.1,0,.32.21,0,.21,0,0-.13.09-.26,0-.11,0-.21S6,26,6,26a.66.66,0,0,0,.2-.09.33.33,0,0,1,.31-.06c.11.05,0,0-.08.16s0,.08,0,.08,0,0,0,.07,0,.2,0,.33.13.13.19.16.08,0,.08,0l.14-.21A.7.7,0,0,0,7,26.18c0-.16.11,0,.11,0l0,.17c0,.18,0,.12-.08.28s0,.16,0,.16a.84.84,0,0,1,0,.26v.05s0,0,0,0a.85.85,0,0,1,0,.22c0,.05-.16.07-.16.07s-.1.2-.11.24-.16.07-.16.07H6.55l-.34.11s0,.07-.12.25L5.8,28l-.21-.11-.12-.2-.16,0a.11.11,0,0,0-.12,0c-.05.05,0,.07.1.15l.15.17a1.16,1.16,0,0,1,.2.38c.09.26.16.11.21.23s0,.06,0,.05,0,0,0,0v.13a.5.5,0,0,1,0,.17c0,.09.13.08.16.12a.73.73,0,0,1,.08.31.2.2,0,0,0,0,.15l.25.08.21-.19.07-.07a.86.86,0,0,1,.19,0c.1,0,.1-.14.1-.14a.35.35,0,0,0,.23-.11l0,0h0L7.45,29h.22v.05s.07.07.07.13-.32.23-.42.3l-.13.1c-.14.1,0,.12,0,.24s0,.1,0,.16,0,.07,0,.21a.55.55,0,0,1-.13.3.23.23,0,0,1-.16.07c-.08,0,0,.1-.19.46s-.09,0-.09,0L6.57,31a.85.85,0,0,1-.23-.11c-.13-.07-.09-.13-.09-.13l-.11-.16H6.06s0,0-.07,0H5.92c-.08,0,0,0-.13.28s-.09.17-.1.17,0,0,0,0-.06,0-.22-.06a.67.67,0,0,1-.21-.12l-.08-.1A.14.14,0,0,0,5,30.71c-.09,0-.1.07-.14.1s0,.09,0,.29,0,.1-.06.19a2.17,2.17,0,0,0-.08.22c-.08.22,0,.2,0,.3a1.13,1.13,0,0,0,.17.23c.09.11,0,.11,0,.15a1.23,1.23,0,0,1-.07.25c-.06.16,0,.13-.09.29s0,.11,0,.21,0,0-.24,0a1.87,1.87,0,0,0-.49.24.92.92,0,0,0-.21.33v.22c0,.08-.07.08-.17.08H3.48a1.09,1.09,0,0,0-.28,0c-.08,0,0,0-.19.16s0,0-.06.28,0,.12.07.29,0,.09,0,.07,0,0,0,0,0,.09.08.15.15,0,.2,0,0,0,.2-.16a1.12,1.12,0,0,0,0,.22c0,.13-.06.16-.12.28a.85.85,0,0,1-.25.24,2,2,0,0,1-.13.25c-.08.13,0,.1,0,.25s-.06.09-.1.08H2.81c-.08,0,0,0-.13,0s-.08,0-.16,0a.32.32,0,0,1-.12-.17l0-.13a.46.46,0,0,0-.12-.09s-.05.07-.05.07,0,.12,0,.25a1.33,1.33,0,0,0,0,.2c0,.12-.14.1-.2.09s0-.1,0-.1l-.15-.19c-.1-.13-.13-.06-.13-.06L1.45,36c-.12.08-.05.05-.08.13s0,.1,0,.29,0,.09,0,.08,0,0-.06.05l0,0,0,0c-.05.07-.11.06-.24.17s-.06.06,0,.05,0,0,0,0A.8.8,0,0,0,.87,37c0,.13,0,.1,0,.22a.57.57,0,0,1-.15.3c-.06.1-.09.09-.13.13s-.18.08-.24.11a1.39,1.39,0,0,0-.33.4c-.12.21,0,.09,0,.09H.19l.27,0,0,0,.2-.1c.12-.06.08-.06.19-.13L1,38l.05.06c.06,0,0,0,0,.2s0,.1,0,.08,0,0,0,0,0,0,0,0,0,0,.06,0,.08,0,.25-.1.08,0,.07,0-.05,0,0,0,0,0,0-.2a1.42,1.42,0,0,0,0-.21.23.23,0,0,1,.07-.18.47.47,0,0,1,.1-.13l0-.08.12-.24a1.57,1.57,0,0,0,.07.26c0,.17,0,.06,0,.24s0,.06,0,.24a2.24,2.24,0,0,0,0,.27.9.9,0,0,0,0,.31c0,.13,0,.1,0,.07v0c0,.06.26.25.26.25L2,38.88,2,39l-.33.06S1.57,39,1.57,39s-.34,0-.41.1,0,0-.07.15a.5.5,0,0,0-.06.19,1.69,1.69,0,0,1-.11.3c-.05.12,0,.09,0,.06s0,0,0,0-.37,0-.37,0l-.21.14c-.12.07-.06.1-.06.1l0,.11c0,.12.22.34.22.34a1.52,1.52,0,0,0,.5-.19c.09-.1.29-.05.4,0s0,0,0,0-.2.34-.24.44-.24.26-.31.36a.63.63,0,0,0-.1.28c0,.1,0,.07.16.1s.06,0,.12.06,0,.1-.07.21.07.09.15.12,0,.06.1.12,0,0,.11.13,0,.08,0,.26v.14a2.24,2.24,0,0,0,.08.31.62.62,0,0,1,.17.2c.08.15,0,0-.08.19s-.19,0-.19,0,0-.08-.09-.09a.18.18,0,0,0-.16,0,.3.3,0,0,0-.17.19c0,.11,0,.11,0,.23v.06s0,0,0,0,0,0-.12.18-.06.08-.06.07,0,0,0,0,0,0-.14.13l-.22.22c-.22.22,0,0,0,.22v.13c0,.07.08.22.21.19s.09,0,.08,0l.29-.18A.15.15,0,0,1,1,44.59c.11,0,0,0,0,.09A2.24,2.24,0,0,1,1.2,45c.05.17,0,0,.05,0s.07,0,.21-.06l.06,0s0,0,0,0a2.91,2.91,0,0,0,.2-.23h.05c.06,0,.08,0,.2-.07a1.51,1.51,0,0,0,.16-.09c.07,0,.05-.07.12-.14s.07,0,.1,0l.06,0s0-.05.1-.08a.1.1,0,0,0,.06-.07s.18-.23.26-.24.08,0,.08,0v.18a2.33,2.33,0,0,1-.08.3c0,.16,0,.09,0,.16s0,.07,0,.25,0,.13,0,.13h0a.42.42,0,0,0,.13,0A.31.31,0,0,0,3.14,45l.08-.1.08-.16.14.06h.15c.14,0,.09-.06.09-.06h.21a.21.21,0,0,1,.17.09c.05.06,0,0,0,.09S3.9,45,3.9,45a.64.64,0,0,0-.17.19c-.09.15-.08.19-.08.19l0,.12.14.29L3.74,46c-.08.19-.08,0-.08,0H3.53s0,0-.16.1,0,.14,0,.2a1,1,0,0,0,.08.22c0,.08,0,.07,0,.06l0,0c.07.08,0,0,.07.13s0,.07,0,.07v.1c0,.09-.11,0-.11,0H3.1c-.13,0-.08.05-.13.1a.82.82,0,0,0-.16.26.38.38,0,0,0,0,.19c0,.09,0,.09-.12.19s0,0,0,.12L2.57,48c0,.12,0,.12,0,.11s0,0,.06.06,0,.09,0,.06,0,0,0,0,0,0,.07.06.11,0,.25,0a.42.42,0,0,1,.17.05h.1c.11,0,.09,0,.16-.05l.24-.08c.13-.05.09-.05.09-.05a.68.68,0,0,1,.17-.08s0,.08,0,.08v.06c0,.06-.07.06-.12.16l0,0s0,0,0,0,0,.06,0,.13v.17c0,.06.13.11.13.11h.53c.15,0,0,.07,0,.17s0,0-.07,0a.11.11,0,0,0-.1,0c-.1,0-.1.2-.2.35s0,.07,0,.17a.69.69,0,0,0,.06.25c0,.08,0,.07,0,.06s0,0,.06,0l.08.1a.54.54,0,0,1,0,.16.17.17,0,0,0,0,.11.28.28,0,0,0,0,.17c0,.09,0,.07,0,.13s.29.07.29.07L5,50.5a.21.21,0,0,0,.12-.06.15.15,0,0,1,.08,0l.09-.16,0-.15a1.39,1.39,0,0,0-.09-.22c0-.08,0-.13,0-.17s0-.07.11-.1a1.27,1.27,0,0,1,.34,0h.14c.07,0,.21-.15.21-.15v-.13l.1-.29v.12a1.08,1.08,0,0,0,0,.29c0,.09,0,.08,0,.06s0,0,0,0a1.29,1.29,0,0,1,.06.22.38.38,0,0,1,0,.2v0s0,0,0,0-.09.14-.15.25,0,.17,0,.23a.59.59,0,0,0,0,.14,1.45,1.45,0,0,0,.28.28c.08,0,0,0,0-.06a.44.44,0,0,1,.13-.11l.09,0,.14,0L7,50.59l.12,0,.08-.06.1-.05.18-.1,0-.11a1.87,1.87,0,0,0,0-.24s0-.23,0-.27.08-.06.08-.06.21,0,.21.12v0A.63.63,0,0,0,7.9,50l.12.16c.11.16.06.09.1.13a.59.59,0,0,1,0,.26c0,.06,0,0-.07.15s-.11.1-.11.1l-.06,0a.35.35,0,0,0-.15.07l-.16.1a1.08,1.08,0,0,0-.12.29v.07c0,.08,0,.13,0,.26s0,.07,0,.06l0,0c0,.07,0,0,0,.16s0,.11,0,.11l0,.16c0,.1,0,.09-.09.08a.1.1,0,0,0-.09,0c-.09.06-.09,0-.17.09s0,0-.08.08,0,0,0,.12,0,.13,0,.13v.18c0,.11,0,.1,0,.09s0,0,0,0,.09,0,.18,0,.12,0,.12,0l.12-.05v-.09l0-.13.12-.16v-.09h.09l.12.13.07.07v.11s.08,0,.08,0l.37,0c.25,0,0,.15,0,.15v.35c0,.17.06.08.06.08l.21.06c.21.06.07,0,.14,0s0,0,0-.06A.41.41,0,0,1,9,53.17l0-.08C9,53,9,53,9,53s0-.31,0-.31a.49.49,0,0,0,0-.14,1.38,1.38,0,0,1,0-.21c0-.11.07,0,.07,0a1,1,0,0,0,.21-.07.17.17,0,0,0,0-.1V52c0-.11,0-.11,0-.27s0-.08,0-.06,0,0,0,0a.43.43,0,0,0-.05-.1l-.09-.14c0-.08,0-.11,0-.11v-.08c0-.09.08,0,.15,0l0,0h0c.07,0,0,0,.16.31s.08.17.07.16,0,0,0,0l0,.07s0,0,0,0,0,.06,0,.16,0,.09,0,.19,0,.06,0,.19,0,.09,0,.19,0,.07,0,.13a.9.9,0,0,0,0,.17l.1.09c.08.06.09.06.11,0H10c.08,0,0,0,.16-.06s0,0,.09-.09,0-.09,0-.09l0-.11c0-.12,0-.1,0-.1v-.15a.16.16,0,0,1,.06-.13h.13c.13,0,0,.07.13.3l0,.1s0,.06,0,.16,0,0,.08.12,0,0,0,0,0,0,0,0,.05,0,.25,0,.1-.09.1-.09l.07-.07c.07-.07,0-.09,0-.09v-.14a.19.19,0,0,1,.05-.11s.06,0,.15.08a.27.27,0,0,1,.1.17.57.57,0,0,0,.18,0c.07,0,.05,0,.11-.08a.29.29,0,0,0,.1-.16l0-.08a.23.23,0,0,1,0-.13l-.08-.12-.06-.18a.59.59,0,0,0,0-.14c0-.06.11-.06.18-.07s.08,0,.39.27l.19.16.22.05c.24,0,.2,0,.25.07s0,.1,0,.17-.08.09-.15.16-.09.08-.09.08l-.32.27-.12.13c-.06.09-.06.06-.17.22s-.05.08-.05.07,0,0,0,0-.12.08-.24.14,0,0,0,.1,0,0,.13,0H12a1.38,1.38,0,0,0,.33-.09l.2-.07a1.11,1.11,0,0,0,.21,0c.08,0,0,0,.1-.13s.07-.14.07-.14l.05-.1c.06-.1,0-.1,0-.1l.19-.24.05-.14a.74.74,0,0,1,.11-.18c.07-.1,0,0,.11,0s0,0,0,.06,0,.13.13.3,0,.09,0,.08,0,0,0,.05.08.15.2.09l.1-.38a.63.63,0,0,1,.15,0,.33.33,0,0,0,.15-.13l.09-.13a1,1,0,0,1,0-.18,1.11,1.11,0,0,0,0-.19l.17,0,.16.11c.16.12.07.1.14.19s0,.06,0,.13.06.09.06.19,0,0,0,.19,0,.1.09.07L15,53l.08-.08v-.2l.06-.16a.24.24,0,0,1,0-.16c0-.09,0-.09,0-.09s0-.2.08-.36l.16-.06c.09,0,.13.1.13.1l.17.08c.07,0,.05,0,.09,0a.15.15,0,0,1,.08,0,.41.41,0,0,0,.1-.1l0-.07a2.55,2.55,0,0,0,0-.29L16,51.36l0-.1-.06-.06a.37.37,0,0,1,0-.22H16s0,0,.19.18,0,.05.08.14,0,0,0,.12a1.13,1.13,0,0,0,.12.2l.12.09.09,0h.18l.09-.07.08-.1.07-.23c0-.11,0-.13,0-.13l-.08-.06c-.08-.06,0-.13,0-.13l0-.08a.89.89,0,0,1,.22,0c.16,0,0,0,0,0s.09,0,.13,0l.15-.07c.09,0,0-.1,0-.1V50.6l.06-.1.17-.07a1.33,1.33,0,0,0,.26.12c.1,0,0,0,.18,0s.08,0,.16,0a.36.36,0,0,0,.24-.17c.06-.1.05-.08,0-.07s0,0,0,0a.3.3,0,0,1,.06-.13l.14.12c.13.12.06.07.1.12a.21.21,0,0,1,.05.07H19c.07,0,.08,0,.17-.08l0,0s0,0,0,0,.05-.07.16-.12.11.06.11.06l0,.12c0,.12,0,0-.12.12s-.06.05-.06,0,0,0-.06,0,0,.06-.09.14,0,.08,0,.18,0,.05,0,0,0,0,0,0,.16,0,.16,0l.11-.13a1.17,1.17,0,0,0,.1-.15c0-.07.09,0,.09,0l.23-.07a.08.08,0,0,0,.05-.08,1.77,1.77,0,0,0,.16-.19c.08-.1.1-.07.1-.07l.07-.07a1.22,1.22,0,0,1,.29,0c.15,0,0,0,0,.09s0,0,0,.1-.06.07-.15.16-.06.07-.12.19,0,0,0,.13,0,0,0,.14l.12,0,.11-.25.17-.14,0-.06a1.2,1.2,0,0,1,.12-.14l.06-.19,0-.1,0-.15.07-.1,0-.07.41.13s0,.05,0,.14,0,0,0,.15,0,0,0,.19-.11.08-.2.14a2.4,2.4,0,0,1-.33.15,1,1,0,0,0-.14.29c0,.07,0,.07-.08.21s0,.08,0,.06,0,0,0,0-.15,0-.22,0a.61.61,0,0,1-.15,0l-.2-.07a1.42,1.42,0,0,0-.35.13.29.29,0,0,0-.07.19c0,.1,0,0,.05.1s0,0,.06.13,0,.06,0,0,0,0,0,0a.66.66,0,0,1,0,.17c0,.12-.13,0-.13,0l-.14,0-.12-.05-.14-.06-.13-.09a1.19,1.19,0,0,0-.22-.06c-.12,0,0,0-.05,0s-.08,0-.08,0l-.11,0c-.05,0-.13.13-.11.18s0,.08,0,.14,0,.06,0,.13.08.18.08.18a.26.26,0,0,1,.06.14c0,.08,0,.1,0,.16a2.77,2.77,0,0,1-.05.29.88.88,0,0,0,.06.21c0,.07.12,0,.12,0h.36a.37.37,0,0,1,.17,0l.14.05s0,.13,0,.18,0,.07,0,.11,0,.06-.08.15,0,0,0,.1,0,.09,0,.16.09.07.09.07h.1s.05,0,.15-.09.12-.13.12-.13a.55.55,0,0,1,.07-.13l.12-.17.09,0a.2.2,0,0,0,.12-.12l.08-.06c.08-.05,0-.08,0-.08l.16-.21s0,.13,0,.21,0,.11,0,.21a1.41,1.41,0,0,1,0,.22v.07c0,.08,0,.08,0,.08a.34.34,0,0,0-.08.1c0,.06-.06,0-.08.09s0,0,0,.1,0,.11,0,.2,0,0,.08.12.11,0,.11,0l.28-.05.1,0,.2.08c.1,0,0,.14,0,.18s.21.27.21.27l.17-.13.05-.12.15-.19,0-.16v-.14l-.07-.16-.1-.15v-.17a.7.7,0,0,1,.15-.09c.09,0,0-.09,0-.09a.8.8,0,0,0,.16,0c.08,0,.08,0,.17,0s0,0,0,.14,0,.09,0,.15a.79.79,0,0,0,0,.16l.06.1.06,0c.07,0,.07-.09.07-.09l.06-.1,0-.22,0-.09a.55.55,0,0,0,0-.13.18.18,0,0,0,0-.1L22.13,53A.7.7,0,0,0,22,52.9l0-.09a.11.11,0,0,0-.1-.09v-.29l.15-.1.06,0,.2.07c.12,0,0,.12,0,.12v.16a.49.49,0,0,0,.06.24c0,.1,0,.08,0,.06s0,0,0,0,0,0,.16.13,0,0,.09.21l0,.07s0,0,0,0,0,.06,0,.11.06.09.06.22,0,.07-.05.16,0,.08,0,.19,0,.07.05.19a.16.16,0,0,0,.13.13h0s0-.28,0-.28l0-.2,0-.12.08-.11,0-.07.05-.12a.41.41,0,0,0,0-.12l-.14-.2L23,53a2.22,2.22,0,0,0-.09-.47v-.27a.32.32,0,0,0,0-.2c0-.13,0,0,0-.23s0-.07,0-.07a3.42,3.42,0,0,1,.28-.22c.12-.09,0-.13,0-.13h.06l.17-.12.1,0,.09,0,.1-.06a.1.1,0,0,0,.06-.1l0-.1,0-.11a.82.82,0,0,0-.05-.17s-.08-.12,0-.2l.13,0,.08.06a.75.75,0,0,1,.1.17c0,.06.12.06.19.13s0,0,.32,0,.21,0,.21,0l.26-.06c.15,0,.13-.1.13-.1l.05-.13v-.26l.15-.25.13.13,0,.2c0,.13,0,.1,0,.07s0,0,0,0-.08.1-.13.13,0,.06,0,.16.06.07.14.2,0,.07,0,.07,0,0,0,0,0,0,0,.1,0,0,0,.14,0,.13,0,.13l.17,0a.33.33,0,0,0,.21-.11c.08-.1.34-.08.34-.08l.22-.13h.14a.08.08,0,0,1,.09,0,.52.52,0,0,1,.17.06c.09,0,0,.13,0,.13a1.21,1.21,0,0,1,.1.16c.07.1,0,0,.06.14s0,0,.06-.06a.7.7,0,0,0,.13-.13v-.19l0-.23a.2.2,0,0,1,0-.17l.05-.16c.05-.16.08-.06.08-.06l.18.17c.1.1.1.09.08.09s0,0,0,0,0,.08,0,.22,0,.07,0,.06h0c0,.06.06,0,.15,0l.1,0a.53.53,0,0,0,.06-.13c0-.08,0-.08,0-.08l.08-.11L28,51l.1,0c.11,0,.12,0,.12,0l.12.1c.12.11.06.08.13.08s.05,0,.13-.13l0-.15.12-.13h0s.09.16.09.16L29,51l.16.07c.07.05,0,.11,0,.15s-.09.14-.09.14l0,0s-.07.06-.1.06-.09.08-.09.08l-.17.09-.17.1-.16.13-.06.1c-.07.11,0,.06,0,.15a1,1,0,0,1,0,.12c0,.11.08,0,.13,0s0,0,.09,0,.1,0,.18,0,0,.06.09.09,0,.09,0,.13-.1.15-.1.15l-.09.07c-.1.07,0,0-.07.2s0,.12,0,.12h.23l.08,0a.14.14,0,0,0,.1-.08.57.57,0,0,1,.08-.16.08.08,0,0,0,0-.1l.08-.21.06.05c.07,0,.07.08.12.14s0,.13,0,.19,0,.07.06.14.15,0,.15,0a.41.41,0,0,1,0,.16.15.15,0,0,0,0,.12.2.2,0,0,0,0,.17l.21-.08h.1v-.1a.65.65,0,0,0,0-.3v-.14H30l.14-.09.07-.22-.13-.24L29.93,52l-.06-.1.1-.17.05-.15V51.1c0-.15.07-.13.07-.13l.09-.06.12-.15,0,0s0-.07.06-.2,0-.13,0-.13l.09-.28v.23a1.48,1.48,0,0,0,.06.25c0,.17,0,.07.12.16s0,0,.08.13-.14.12-.14.12l-.08.07-.18.09a.57.57,0,0,0,0,.24c0,.12.09.06.13.09s.11,0,.23,0,.06,0,.13,0,.06,0,.1.07a.43.43,0,0,1,.08.23c0,.12.07.1.07.1a.42.42,0,0,0,.23,0c.18,0,0-.1,0-.1a.42.42,0,0,0,.07-.2.59.59,0,0,0,0-.16l.07-.13c.06-.13,0-.09,0-.09l.09-.19c.09-.19.05-.07.07-.16s0,0-.05-.18,0-.09,0-.18,0-.07,0-.16,0-.07,0-.07V50h.26l.06.12v.23l.18.11.13-.06.09-.18.16-.06.1.08a2.66,2.66,0,0,0-.34.43c0,.12,0,0,.32.18l.18.1v.25s.13.14.19.21a.09.09,0,0,0,.13,0h.22c.11,0,.08.14.08.14v.18a.48.48,0,0,0,.19.14.09.09,0,0,0,.12,0l.14-.16v-.12l.13-.13a.58.58,0,0,1,.19-.11.28.28,0,0,0,.1-.06l.07-.18,0-.14s.17,0,.2.06,0,.13,0,.13l.12,0s.17.11.18.17-.06.1-.06.1l-.19.06c-.1,0,0,.17,0,.17v.15a.48.48,0,0,0,.17,0,.47.47,0,0,1,.21,0l.1.1.11.07.2-.11.06-.1,0-.13a.7.7,0,0,0-.17-.11c-.12,0,0-.07,0-.07s.09-.24.13-.33,0,0,0,0h.09c.13,0,0,0,.08,0a.22.22,0,0,0,.11-.13v-.25a.62.62,0,0,1,.14,0,.37.37,0,0,1,.15,0c.06,0,.11.25.11.25h.18a.2.2,0,0,1,0,.08v.5c0,.54,0,3,0,3.24a5.14,5.14,0,0,1-1.46,3.57,12.72,12.72,0,0,1-2.23,1.48L32,60a11.26,11.26,0,0,1-1.21.06c-.46,0-.7.2-1.59.33h20.3c-.89-.13-1.14-.32-1.6-.33a11.06,11.06,0,0,1-1.2-.06l-.48-.22A12.45,12.45,0,0,1,44,58.26a5.14,5.14,0,0,1-1.46-3.57c0-.2,0-2.7,0-3.24,0-.19,0-.35,0-.5a1.07,1.07,0,0,1,.23-.35,6,6,0,0,1,.77-.58.44.44,0,0,1,.13.34l.91.67.48.09c.47.09.45-.26.45-.26l.34.28h.55l-.1-.39.5,0,.51-.55.48.33-.12.37-.2.37.18.26a1.13,1.13,0,0,1,.14.3c.06.2-.14.55-.14.55l.06.3.2.2.21.44.1.26h.48l.71.24v-.26l-.2-.24.3-.35v-.57l.41-.26.42-.07.1.53s0-.11.12.08a.37.37,0,0,0,.29.2l-.17.57.55-.29.12.22h.37l.12-.37.42,0,.06-.33c.06-.33.11-.22.11-.22l.38-.24.32-.48.14-.13a2.71,2.71,0,0,0,.19-.21c.2-.22,0,0,.2-.35s0-.31,0-.31l-.24-.52L54,50l.14.5.25.65.7.16.29-.11.24.54.24,0a2.91,2.91,0,0,0,.33,0c.34,0,0,0,.26.17s0,0,.47-.08.32-.42.32-.42l.4,0-.12.42.06.33.21-.11.2,0a.94.94,0,0,1,.28,0l.08-.34.29.08.6.26.25.05.4-.22v-.37l-.12-.41.52.3a.53.53,0,0,1-.06-.13c0-.14,0-.33.61-.06.37.15.33.2.21.2h.07l.51.07.55,0,.1-.39L62.17,51s0,.67,0-.16a2.36,2.36,0,0,0,0-.29.88.88,0,0,0,.05-.34c0-.5.23-.3.31-.2l-.17-.24v-.15l.1-.17c.1-.18,0,0,0-.31s0-.15,0-.15.08-.85.46-.76.19.28.19.28l.18.22v.5l.2.15s.51.63.57.33.3-.28.3-.28l.12.3c.07.18.06.15.09.12s.06,0,.17,0,0,0,.29.2,0,0,.3-.09.26-.11.26-.11l.31.22-.06.33a.42.42,0,0,0,.16.45s0,.16.32.31,0,0,.14.24.11.26.11.26l.12.37.56,0s-.05,0,.23,0c.46.05,0,0,.2.09l.1,0s0,0,.1,0,0,0,0,.2a1.12,1.12,0,0,1,0,.22,5.13,5.13,0,0,0,.95.11l.36,0s-.36,0,.23,0,.08.13.08.13l0,.26v.22l.1.06c.1.07,0,0,.28,0s0,0,.12,0,0,0,.33.13.22.22.22.22l.24,0c.23,0,.21-.15.21-.15l.2-.13.62-.5.13-.16s-.13.16.24.07.22-.3.22-.3v-.29l.16-.28.18.15.29-.52.08-.22V51l-.28-.32.36-.16h.16l.16.09.1.31c.05.16,0,.15,0,.13s0,0,0,.08.33-.11.33-.11l.26-.3.49-.63,0-.4c0-.24,0-.18,0-.12s0,.07,0,0a.8.8,0,0,1,.16-.24l.12-.39h.32c.31,0,0,0,.17.06s0,.15,0,.15v.68l.32-.26.61-.59,0-.24.26-.11.12-.41-.08-.22-.26-.22a2,2,0,0,1-.19-.17l.07-.2.24,0,.16.16.2.17.14,0,.31.13c.18.09,0,.31,0,.31l0,.24c0,.24.26,0,.26,0l.16-.22.27-.09.2-.17a.89.89,0,0,0,.5-.11l.13-.18.12-.08.26,0,.12-.11.06-.33s.12-.09.18,0,.31.06.31.06l.2-.08,0-.29-.28-.17-.06-.33c-.06-.32,0-.11,0-.11l0-.26-.06-.24v-.63Zm-69.4,7.54s0,0,0,0v0ZM39.57,1.32h0s0-.05,0,0A0,0,0,0,1,39.57,1.32Z"/><path class="cls-2" d="M75.55,28.81a.66.66,0,0,0,0-.1s0,.05,0,.19S75.56,28.88,75.55,28.81Z"/><path class="cls-2" d="M76.67,37.05l-.14.18S76.67,37.05,76.67,37.05Z"/><path class="cls-2" d="M75.4,33.74s-.07,0-.05,0l.13-.08Z"/><path class="cls-2" d="M75.8,35.55h-.08S75.66,35.6,75.8,35.55Z"/><path class="cls-2" d="M77.25,36.21s0,0,0,0a.21.21,0,0,0-.12.06S77.22,36.23,77.25,36.21Z"/><path class="cls-2" d="M76.61,35.23s0,0,0,.07l.14,0A.35.35,0,0,0,76.61,35.23Z"/></g></g></svg>