<!DOCTYPE svg PUBLIC "-//W3C//DTD SVG 1.1//EN" "http://www.w3.org/Graphics/SVG/1.1/DTD/svg11.dtd">
<!-- Uploaded to: SVG Repo, www.svgrepo.com, Transformed by: SVG Repo Mixer Tools -->
<svg fill="#082F49" height="800px" width="800px" version="1.1" id="Layer_1" xmlns="http://www.w3.org/2000/svg" xmlns:xlink="http://www.w3.org/1999/xlink" viewBox="0 0 512 512" xml:space="preserve">
<g id="SVGRepo_bgCarrier" stroke-width="0"/>
<g id="SVGRepo_tracerCarrier" stroke-linecap="round" stroke-linejoin="round"/>
<g id="SVGRepo_iconCarrier"> <g> <g> <path d="M426.667,0H85.333c-9.412,0-17.067,7.654-17.067,17.067v477.867c0,9.412,7.654,17.067,17.067,17.067h341.333 c9.404,0,17.067-7.654,17.067-17.067V17.067C443.733,7.654,436.07,0,426.667,0z M213.333,460.8H128 c-4.719,0-8.533-3.823-8.533-8.533c0-4.71,3.814-8.533,8.533-8.533h85.333c4.71,0,8.533,3.823,8.533,8.533 C221.867,456.977,218.044,460.8,213.333,460.8z M247.467,426.667H128c-4.719,0-8.533-3.823-8.533-8.533s3.814-8.533,8.533-8.533 h119.467c4.71,0,8.533,3.823,8.533,8.533S252.177,426.667,247.467,426.667z M119.467,349.867c0-4.71,3.814-8.533,8.533-8.533 h85.333c4.71,0,8.533,3.823,8.533,8.533s-3.823,8.533-8.533,8.533H128C123.281,358.4,119.467,354.577,119.467,349.867z M247.467,324.267H128c-4.719,0-8.533-3.823-8.533-8.533c0-4.71,3.814-8.533,8.533-8.533h119.467c4.71,0,8.533,3.823,8.533,8.533 C256,320.444,252.177,324.267,247.467,324.267z M119.467,247.467c0-4.71,3.814-8.533,8.533-8.533h85.333 c4.71,0,8.533,3.823,8.533,8.533S218.044,256,213.333,256H128C123.281,256,119.467,252.177,119.467,247.467z M247.467,221.867H128 c-4.719,0-8.533-3.823-8.533-8.533c0-4.71,3.814-8.533,8.533-8.533h119.467c4.71,0,8.533,3.823,8.533,8.533 C256,218.044,252.177,221.867,247.467,221.867z M281.6,145.067c-4.719,0-8.533-3.823-8.533-8.533V80.333L256,63.266 l-17.067,17.067v56.201c0,4.71-3.823,8.533-8.533,8.533c-4.719,0-8.533-3.823-8.533-8.533V97.399l-11.034,11.034 c-3.337,3.337-8.738,3.337-12.075,0c-3.328-3.336-3.328-8.73,0-12.066l25.6-25.591l0.009-0.017l25.591-25.591 c3.337-3.337,8.738-3.337,12.075,0l25.591,25.591l0.009,0.017l25.6,25.591c3.328,3.337,3.328,8.73,0,12.066 c-1.673,1.664-3.857,2.5-6.033,2.5c-2.185,0-4.369-0.836-6.042-2.5l-11.025-11.034v39.134 C290.133,141.244,286.31,145.067,281.6,145.067z M373.871,397.491l-42.667,59.733c-1.459,2.039-3.738,3.337-6.238,3.55 c-0.239,0.017-0.469,0.026-0.7,0.026c-2.253,0-4.429-0.896-6.042-2.5l-25.6-25.6c-3.328-3.337-3.328-8.73,0-12.066 c3.337-3.337,8.738-3.337,12.075,0l18.475,18.475l36.813-51.533c2.739-3.84,8.073-4.719,11.904-1.988 C375.723,388.326,376.61,393.66,373.871,397.491z M373.871,295.091l-42.667,59.733c-1.459,2.039-3.738,3.336-6.238,3.55 c-0.239,0.017-0.469,0.026-0.7,0.026c-2.253,0-4.429-0.896-6.042-2.5l-25.6-25.6c-3.328-3.337-3.328-8.73,0-12.066 c3.337-3.336,8.738-3.336,12.075,0l18.475,18.475l36.813-51.533c2.739-3.831,8.073-4.719,11.904-1.988 C375.723,285.926,376.61,291.26,373.871,295.091z M373.871,192.691l-42.667,59.733c-1.459,2.039-3.738,3.336-6.238,3.55 c-0.239,0.017-0.469,0.026-0.7,0.026c-2.253,0-4.429-0.896-6.042-2.5l-25.6-25.6c-3.328-3.336-3.328-8.73,0-12.066 c3.337-3.337,8.738-3.337,12.075,0l18.475,18.475l36.813-51.533c2.739-3.831,8.073-4.71,11.904-1.988 C375.723,183.526,376.61,188.86,373.871,192.691z"/> </g> </g> </g>
</svg>