<!DOCTYPE svg PUBLIC "-//W3C//DTD SVG 1.1//EN" "http://www.w3.org/Graphics/SVG/1.1/DTD/svg11.dtd">
<!-- Uploaded to: SVG Repo, www.svgrepo.com, Transformed by: SVG Repo Mixer Tools -->
<svg fill="#082F49" height="800px" width="800px" version="1.1" id="Layer_1" xmlns="http://www.w3.org/2000/svg" xmlns:xlink="http://www.w3.org/1999/xlink" viewBox="0 0 512.018 512.018" xml:space="preserve">
<g id="SVGRepo_bgCarrier" stroke-width="0"/>
<g id="SVGRepo_tracerCarrier" stroke-linecap="round" stroke-linejoin="round"/>
<g id="SVGRepo_iconCarrier"> <g transform="translate(0 -1)"> <g> <g> <path d="M507.382,316.623c-14.353-19.985-28.954-21.052-63.633-3.473v25.208c0,8.849-4.693,17.22-12.245,21.845l-48.853,29.858 l-0.444,0.23c-13.252,7.074-31.846,10.735-60.288,11.861l-51.166,0.026c-11.085,0-20.514-7.219-24.038-17.161h-67.499 c-25.6,0-25.6,12.843-25.6,17.067c0,4.719-3.814,8.533-8.533,8.533s-8.533-3.814-8.533-8.533 c0-21.376,15.949-34.133,42.667-34.133h67.524c3.482-9.583,12.51-16.64,23.245-16.964h0.043 c-6.955-5.666-16.043-8.875-25.805-8.875h-33.28c-25.446,0-50.099-8.03-69.436-22.596c-0.845-0.64-3.345-2.526-9.6-2.526 c-2.364,0-5.043,0.273-7.979,0.785c-1.34,0.247-2.901,0.401-4.471,0.401c-5.973,0-11.802-2.125-16.41-5.973 c-5.828-4.907-9.165-12.049-9.165-19.635v-1.28c-13.38,5.35-25.421,12.245-34.133,17.792v-17.929H0.015v221.867h59.733v-25.6 h110.933c17.442,0,35.004-1.323,52.19-3.951l110.618-16.811c4.028-0.043,8.107-0.529,11.742-1.348 c10.18-1.434,19.917-6.298,28.177-14.08l129.34-100.727l0.205-0.154C513.022,342.002,514.968,327.188,507.382,316.623z M42.682,321.086v166.332v8.533h-25.6V308.218h25.6V321.086z"/> <path d="M221.882,163.151c9.412,0,17.067-7.654,17.067-17.067c0-9.412-7.654-17.067-17.067-17.067 c-9.412,0-17.067,7.654-17.067,17.067C204.815,155.497,212.47,163.151,221.882,163.151z"/> <path d="M324.282,231.418c-9.412,0-17.067,7.654-17.067,17.067s7.654,17.067,17.067,17.067c9.412,0,17.067-7.654,17.067-17.067 S333.694,231.418,324.282,231.418z"/> <path d="M75.766,171.685h35.183v120.883c0,2.526,1.118,4.915,3.046,6.545c1.937,1.613,4.514,2.321,6.972,1.852 c13.252-2.338,23.322-0.734,30.805,4.924c16.393,12.348,37.41,19.157,59.17,19.157h33.28c19.336,0,36.958,9.079,47.155,24.286 c3.516,5.257,4.966,9.643,3.883,11.75c-1.63,3.149-9.907,6.528-24.764,6.963c-4.668,0.137-8.346,4.002-8.277,8.653 c0.06,4.668,3.866,8.414,8.533,8.414l50.492-0.009c25.361-1.007,42.044-4.062,52.932-9.865l48.427-29.594 c2.526-1.553,4.079-4.309,4.079-7.287V171.685h34.133c3.533,0,6.69-2.176,7.97-5.47c1.263-3.285,0.375-7.023-2.244-9.387 L313.308,18.221c-25.685-22.963-64.384-22.972-90.069,0.034L70.04,156.828c-2.62,2.364-3.507,6.101-2.244,9.387 C69.076,169.509,72.233,171.685,75.766,171.685z M324.282,282.618c-18.825,0-34.133-15.309-34.133-34.133 s15.309-34.133,34.133-34.133c18.825,0,34.133,15.309,34.133,34.133S343.107,282.618,324.282,282.618z M221.882,111.951 c18.825,0,34.133,15.309,34.133,34.133s-15.309,34.133-34.133,34.133s-34.133-15.309-34.133-34.133 S203.057,111.951,221.882,111.951z M190.249,268.052l153.6-153.6c3.336-3.337,8.73-3.337,12.066,0 c3.336,3.337,3.336,8.73,0,12.066l-153.6,153.6c-1.664,1.664-3.849,2.5-6.033,2.5c-2.185,0-4.369-0.836-6.033-2.5 C186.912,276.781,186.912,271.388,190.249,268.052z"/> </g> </g> </g> </g>
</svg>