<svg xmlns="http://www.w3.org/2000/svg" version="1.1" xmlns:xlink="http://www.w3.org/1999/xlink" width="512" height="512" x="0" y="0" viewBox="0 0 512 512" style="enable-background:new 0 0 512 512" xml:space="preserve" class=""><g><path d="M260.664 232.012h-50.167a8 8 0 0 0-8 8v199.326a8 8 0 0 0 8 8h50.167a8 8 0 0 0 8-8V240.012a8 8 0 0 0-8-8zm-8 199.326h-34.167V248.012h34.167zm-85.153-146.671h-50.168a8 8 0 0 0-8 8v146.671a8 8 0 0 0 8 8h50.168a8 8 0 0 0 8-8V292.667a8 8 0 0 0-8-8zm-8 146.671h-34.168V300.667h34.168zm-85.155-96.245H24.188a8 8 0 0 0-8 8v96.244a8 8 0 0 0 8 8h50.167a8 8 0 0 0 8-8v-96.244a7.998 7.998 0 0 0-7.999-8zm-8 96.244H32.188v-80.244h34.167v80.244zM18.908 303.583a8 8 0 0 1-2.631-15.557c120.492-41.962 226.506-102.973 315.427-181.45l-17.576.954a8 8 0 0 1-.867-15.977l40.122-2.178a8 8 0 0 1 8.35 9.141l-5.79 39.761a8.003 8.003 0 0 1-9.07 6.764 8 8 0 0 1-6.764-9.069l2.585-17.757c-90.567 80.029-198.508 142.209-321.157 184.921a7.947 7.947 0 0 1-2.629.447zM370.733 58.699l20.542 16.511-6.914 25.432c-1.125 4.137.39 8.438 3.858 10.958a10.197 10.197 0 0 0 6.008 1.97c1.94 0 3.885-.561 5.605-1.687l22.05-14.435 22.051 14.435c3.586 2.347 8.145 2.237 11.612-.282 3.468-2.52 4.983-6.82 3.859-10.959l-6.915-25.431 20.541-16.51c3.342-2.685 4.646-7.055 3.321-11.133s-4.948-6.848-9.229-7.056L440.8 39.228l-9.354-24.638c-1.52-4.004-5.273-6.59-9.562-6.59-4.29 0-8.043 2.586-9.562 6.589l-9.354 24.638-26.323 1.283c-4.283.208-7.906 2.978-9.23 7.056-1.326 4.079-.022 8.449 3.318 11.133zm36.785-3.674a10.225 10.225 0 0 0 9.065-6.585l5.3-13.959 5.301 13.961a10.226 10.226 0 0 0 9.063 6.583l14.914.727-11.637 9.354a10.225 10.225 0 0 0-3.463 10.656l3.917 14.407-12.496-8.18a10.227 10.227 0 0 0-11.201.002l-12.492 8.178 3.917-14.407a10.223 10.223 0 0 0-3.462-10.656l-11.638-9.354zm88.448 314.205-13.582-5.229a97.439 97.439 0 0 0-8.614-20.777l5.912-13.309a7.999 7.999 0 0 0-1.654-8.904l-20.112-20.112a7.976 7.976 0 0 0-2.948-1.863V145.277a8 8 0 0 0-8-8H396.8a8 8 0 0 0-8 8v132.557h-15.011a8 8 0 0 0-7.466 5.126l-4.506 11.707V192.645a8 8 0 0 0-8-8h-50.168a8 8 0 0 0-8 8v165.129a97.535 97.535 0 0 0-2.011 6.227l-13.584 5.229a7.998 7.998 0 0 0-5.126 7.466v28.442a8 8 0 0 0 5.126 7.466l13.582 5.228a97.576 97.576 0 0 0 2.013 6.235v15.27a7.984 7.984 0 0 0 3.38 6.524l-2.691 6.058a7.999 7.999 0 0 0 1.654 8.904l20.113 20.112a8 8 0 0 0 8.904 1.655l13.315-5.914a97.467 97.467 0 0 0 20.77 8.611l5.229 13.586a7.998 7.998 0 0 0 7.466 5.126h28.443a8 8 0 0 0 7.466-5.126l5.227-13.582a97.417 97.417 0 0 0 20.777-8.614l13.31 5.911a7.997 7.997 0 0 0 8.904-1.654l20.112-20.112a7.999 7.999 0 0 0 1.654-8.904l-5.914-13.315a97.467 97.467 0 0 0 8.611-20.77l13.586-5.229a7.998 7.998 0 0 0 5.126-7.466v-28.442a7.999 7.999 0 0 0-5.125-7.466zm-56.999-215.953v150.428l-3.271 1.453a97.489 97.489 0 0 0-20.77-8.611l-5.229-13.587a7.989 7.989 0 0 0-4.897-4.691V153.277zm-93.151 47.368v101.683a97.582 97.582 0 0 0-5.494 2.831l-13.315-5.914a8 8 0 0 0-8.904 1.655l-6.455 6.455v-106.71zm139.276 199.001-12.287 4.729a7.998 7.998 0 0 0-4.909 5.614 81.547 81.547 0 0 1-9.916 23.918 7.999 7.999 0 0 0-.499 7.441l5.349 12.044-12.344 12.344-12.039-5.347a7.995 7.995 0 0 0-7.442.5 81.522 81.522 0 0 1-23.923 9.917 7.999 7.999 0 0 0-5.615 4.909L396.738 488h-17.457l-4.729-12.288a7.998 7.998 0 0 0-5.614-4.909 81.53 81.53 0 0 1-23.917-9.916 8.007 8.007 0 0 0-7.442-.5l-12.044 5.35-12.345-12.344 5.347-12.038a8 8 0 0 0-.499-7.442 81.54 81.54 0 0 1-9.918-23.925 8 8 0 0 0-4.909-5.614l-12.283-4.728v-17.457l12.286-4.729a8 8 0 0 0 4.909-5.614 81.55 81.55 0 0 1 9.917-23.92 8.001 8.001 0 0 0 .499-7.442l-5.348-12.042 12.344-12.345 12.045 5.35a7.999 7.999 0 0 0 7.441-.5 81.558 81.558 0 0 1 23.918-9.916 8 8 0 0 0 5.614-4.909l4.73-12.288h17.457l4.73 12.288a7.998 7.998 0 0 0 5.614 4.909 81.558 81.558 0 0 1 23.918 9.916 8.005 8.005 0 0 0 7.441.5l12.045-5.35 12.344 12.344-5.347 12.039a8 8 0 0 0 .5 7.443 81.557 81.557 0 0 1 9.918 23.924 7.998 7.998 0 0 0 4.909 5.614l12.283 4.729v17.456zm-97.083-66.332c-31.763 0-57.604 25.841-57.604 57.604 0 31.762 25.841 57.603 57.604 57.603s57.604-25.841 57.604-57.603c0-31.763-25.841-57.604-57.604-57.604zm0 99.207c-22.94 0-41.604-18.663-41.604-41.603s18.663-41.604 41.604-41.604 41.604 18.663 41.604 41.604c0 22.939-18.663 41.603-41.604 41.603z" fill="#67e8f9" opacity="1" data-original="#000000" class=""></path></g></svg>